<mxfile host="app.diagrams.net" agent="Mozilla/5.0 (X11; Linux x86_64) AppleWebKit/537.36 (KHTML, like Gecko) Chrome/132.0.0.0 Safari/537.36" version="26.2.14">
  <diagram id="Ht1M8jgEwFfnCIfOTk4-" name="Page-1">
    <mxGraphModel dx="806" dy="481" grid="1" gridSize="10" guides="1" tooltips="1" connect="1" arrows="1" fold="1" page="1" pageScale="1" pageWidth="1169" pageHeight="827" math="0" shadow="0">
      <root>
        <mxCell id="0" />
        <mxCell id="1" parent="0" />
        <mxCell id="FrHEs0nIIMrFHYCSIknj-62" value="Cloudflare" style="rounded=1;whiteSpace=wrap;html=1;" vertex="1" parent="1">
          <mxGeometry x="312.5" y="140" width="198" height="55" as="geometry" />
        </mxCell>
        <mxCell id="FrHEs0nIIMrFHYCSIknj-14" value="" style="rounded=1;whiteSpace=wrap;html=1;" vertex="1" parent="1">
          <mxGeometry x="192.5" y="60" width="120" height="60" as="geometry" />
        </mxCell>
        <mxCell id="FrHEs0nIIMrFHYCSIknj-2" value="" style="rounded=1;whiteSpace=wrap;html=1;" vertex="1" parent="1">
          <mxGeometry x="260" y="270" width="300" height="140" as="geometry" />
        </mxCell>
        <mxCell id="FrHEs0nIIMrFHYCSIknj-5" value="" style="sketch=0;outlineConnect=0;fontColor=#232F3E;gradientColor=none;fillColor=#232F3D;strokeColor=none;dashed=0;verticalLabelPosition=bottom;verticalAlign=top;align=center;html=1;fontSize=12;fontStyle=0;aspect=fixed;pointerEvents=1;shape=mxgraph.aws4.traditional_server;" vertex="1" parent="1">
          <mxGeometry x="290" y="290" width="45" height="78" as="geometry" />
        </mxCell>
        <mxCell id="FrHEs0nIIMrFHYCSIknj-6" value="`&lt;span style=&quot;white-space: pre;&quot;&gt;&#x9;&lt;/span&gt;`" style="sketch=0;outlineConnect=0;fontColor=#232F3E;gradientColor=none;fillColor=#232F3D;strokeColor=none;dashed=0;verticalLabelPosition=bottom;verticalAlign=top;align=center;html=1;fontSize=12;fontStyle=0;aspect=fixed;pointerEvents=1;shape=mxgraph.aws4.traditional_server;" vertex="1" parent="1">
          <mxGeometry x="387.5" y="290" width="45" height="78" as="geometry" />
        </mxCell>
        <mxCell id="FrHEs0nIIMrFHYCSIknj-7" value="" style="sketch=0;outlineConnect=0;fontColor=#232F3E;gradientColor=none;fillColor=#232F3D;strokeColor=none;dashed=0;verticalLabelPosition=bottom;verticalAlign=top;align=center;html=1;fontSize=12;fontStyle=0;aspect=fixed;pointerEvents=1;shape=mxgraph.aws4.traditional_server;" vertex="1" parent="1">
          <mxGeometry x="470" y="290" width="45" height="78" as="geometry" />
        </mxCell>
        <mxCell id="FrHEs0nIIMrFHYCSIknj-9" value="" style="image;sketch=0;aspect=fixed;html=1;points=[];align=center;fontSize=12;image=img/lib/mscae/Docker.svg;" vertex="1" parent="1">
          <mxGeometry x="478.41" y="350" width="36.59" height="30" as="geometry" />
        </mxCell>
        <mxCell id="FrHEs0nIIMrFHYCSIknj-10" value="" style="image;sketch=0;aspect=fixed;html=1;points=[];align=center;fontSize=12;image=img/lib/mscae/Docker.svg;" vertex="1" parent="1">
          <mxGeometry x="391.70000000000005" y="350" width="36.59" height="30" as="geometry" />
        </mxCell>
        <mxCell id="FrHEs0nIIMrFHYCSIknj-11" value="" style="image;sketch=0;aspect=fixed;html=1;points=[];align=center;fontSize=12;image=img/lib/mscae/Docker.svg;" vertex="1" parent="1">
          <mxGeometry x="294.20000000000005" y="350" width="36.59" height="30" as="geometry" />
        </mxCell>
        <mxCell id="FrHEs0nIIMrFHYCSIknj-12" value="" style="verticalLabelPosition=bottom;html=1;verticalAlign=top;align=center;strokeColor=none;fillColor=#00BEF2;shape=mxgraph.azure.load_balancer_generic;pointerEvents=1;" vertex="1" parent="1">
          <mxGeometry x="387.5" y="210" width="37.5" height="50" as="geometry" />
        </mxCell>
        <mxCell id="FrHEs0nIIMrFHYCSIknj-13" value="" style="sketch=0;verticalLabelPosition=bottom;sketch=0;aspect=fixed;html=1;verticalAlign=top;strokeColor=none;fillColor=#000000;align=center;outlineConnect=0;pointerEvents=1;shape=mxgraph.citrix2.external_users;" vertex="1" parent="1">
          <mxGeometry x="200" y="70" width="48.449999999999996" height="50" as="geometry" />
        </mxCell>
        <mxCell id="FrHEs0nIIMrFHYCSIknj-15" value="" style="dashed=0;outlineConnect=0;html=1;align=center;labelPosition=center;verticalLabelPosition=bottom;verticalAlign=top;shape=mxgraph.weblogos.chrome" vertex="1" parent="1">
          <mxGeometry x="280" y="95" width="32.5" height="30" as="geometry" />
        </mxCell>
        <mxCell id="FrHEs0nIIMrFHYCSIknj-16" value="" style="rounded=1;whiteSpace=wrap;html=1;" vertex="1" parent="1">
          <mxGeometry x="560" y="60" width="120" height="60" as="geometry" />
        </mxCell>
        <mxCell id="FrHEs0nIIMrFHYCSIknj-17" value="" style="image;aspect=fixed;html=1;points=[];align=center;fontSize=12;image=img/lib/azure2/networking/DNS_Zones.svg;" vertex="1" parent="1">
          <mxGeometry x="575" y="70" width="40" height="40" as="geometry" />
        </mxCell>
        <mxCell id="FrHEs0nIIMrFHYCSIknj-18" value="" style="endArrow=classic;html=1;rounded=0;" edge="1" parent="1">
          <mxGeometry width="50" height="50" relative="1" as="geometry">
            <mxPoint x="320" y="80" as="sourcePoint" />
            <mxPoint x="550" y="80" as="targetPoint" />
          </mxGeometry>
        </mxCell>
        <mxCell id="FrHEs0nIIMrFHYCSIknj-19" value="" style="endArrow=classic;html=1;rounded=0;" edge="1" parent="1">
          <mxGeometry width="50" height="50" relative="1" as="geometry">
            <mxPoint x="550" y="120" as="sourcePoint" />
            <mxPoint x="320" y="120" as="targetPoint" />
          </mxGeometry>
        </mxCell>
        <mxCell id="FrHEs0nIIMrFHYCSIknj-20" value="IP: 124.25.23.10" style="text;html=1;align=center;verticalAlign=middle;resizable=0;points=[];autosize=1;strokeColor=none;fillColor=none;" vertex="1" parent="1">
          <mxGeometry x="374.39000000000004" y="95" width="110" height="30" as="geometry" />
        </mxCell>
        <mxCell id="FrHEs0nIIMrFHYCSIknj-21" value="https://coding-for-machine.com" style="text;html=1;align=center;verticalAlign=middle;resizable=0;points=[];autosize=1;strokeColor=none;fillColor=none;" vertex="1" parent="1">
          <mxGeometry x="330.79" y="60" width="190" height="30" as="geometry" />
        </mxCell>
        <mxCell id="FrHEs0nIIMrFHYCSIknj-22" value="" style="rounded=1;whiteSpace=wrap;html=1;" vertex="1" parent="1">
          <mxGeometry x="170" y="460" width="450" height="250" as="geometry" />
        </mxCell>
        <mxCell id="FrHEs0nIIMrFHYCSIknj-24" value="" style="sketch=0;outlineConnect=0;fontColor=#232F3E;gradientColor=none;fillColor=#232F3D;strokeColor=none;dashed=0;verticalLabelPosition=bottom;verticalAlign=top;align=center;html=1;fontSize=12;fontStyle=0;aspect=fixed;pointerEvents=1;shape=mxgraph.aws4.traditional_server;" vertex="1" parent="1">
          <mxGeometry x="222.49" y="560" width="63.46" height="110" as="geometry" />
        </mxCell>
        <mxCell id="FrHEs0nIIMrFHYCSIknj-23" value="" style="image;sketch=0;aspect=fixed;html=1;points=[];align=center;fontSize=12;image=img/lib/mscae/Azure_Database_for_PostgreSQL_servers.svg;" vertex="1" parent="1">
          <mxGeometry x="260" y="620" width="38" height="50" as="geometry" />
        </mxCell>
        <mxCell id="FrHEs0nIIMrFHYCSIknj-25" value="Assosiy server" style="text;html=1;align=center;verticalAlign=middle;resizable=0;points=[];autosize=1;strokeColor=none;fillColor=none;" vertex="1" parent="1">
          <mxGeometry x="204.22" y="670" width="100" height="30" as="geometry" />
        </mxCell>
        <mxCell id="FrHEs0nIIMrFHYCSIknj-26" value="" style="sketch=0;outlineConnect=0;fontColor=#232F3E;gradientColor=none;fillColor=#232F3D;strokeColor=none;dashed=0;verticalLabelPosition=bottom;verticalAlign=top;align=center;html=1;fontSize=12;fontStyle=0;aspect=fixed;pointerEvents=1;shape=mxgraph.aws4.traditional_server;" vertex="1" parent="1">
          <mxGeometry x="395.79" y="482" width="33.46" height="58" as="geometry" />
        </mxCell>
        <mxCell id="FrHEs0nIIMrFHYCSIknj-27" value="" style="image;sketch=0;aspect=fixed;html=1;points=[];align=center;fontSize=12;image=img/lib/mscae/Azure_Database_for_PostgreSQL_servers.svg;" vertex="1" parent="1">
          <mxGeometry x="417.99" y="510" width="22.8" height="30" as="geometry" />
        </mxCell>
        <mxCell id="FrHEs0nIIMrFHYCSIknj-28" value="" style="sketch=0;outlineConnect=0;fontColor=#232F3E;gradientColor=none;fillColor=#232F3D;strokeColor=none;dashed=0;verticalLabelPosition=bottom;verticalAlign=top;align=center;html=1;fontSize=12;fontStyle=0;aspect=fixed;pointerEvents=1;shape=mxgraph.aws4.traditional_server;" vertex="1" parent="1">
          <mxGeometry x="394.83000000000004" y="550" width="33.46" height="58" as="geometry" />
        </mxCell>
        <mxCell id="FrHEs0nIIMrFHYCSIknj-29" value="" style="sketch=0;outlineConnect=0;fontColor=#232F3E;gradientColor=none;fillColor=#232F3D;strokeColor=none;dashed=0;verticalLabelPosition=bottom;verticalAlign=top;align=center;html=1;fontSize=12;fontStyle=0;aspect=fixed;pointerEvents=1;shape=mxgraph.aws4.traditional_server;" vertex="1" parent="1">
          <mxGeometry x="394.83000000000004" y="616" width="33.46" height="58" as="geometry" />
        </mxCell>
        <mxCell id="FrHEs0nIIMrFHYCSIknj-30" value="" style="image;sketch=0;aspect=fixed;html=1;points=[];align=center;fontSize=12;image=img/lib/mscae/Azure_Database_for_PostgreSQL_servers.svg;" vertex="1" parent="1">
          <mxGeometry x="417.99" y="578" width="22.8" height="30" as="geometry" />
        </mxCell>
        <mxCell id="FrHEs0nIIMrFHYCSIknj-31" value="" style="image;sketch=0;aspect=fixed;html=1;points=[];align=center;fontSize=12;image=img/lib/mscae/Azure_Database_for_PostgreSQL_servers.svg;" vertex="1" parent="1">
          <mxGeometry x="417.99" y="650" width="22.8" height="30" as="geometry" />
        </mxCell>
        <mxCell id="FrHEs0nIIMrFHYCSIknj-32" value="" style="endArrow=classic;html=1;rounded=0;" edge="1" parent="1" source="FrHEs0nIIMrFHYCSIknj-24" target="FrHEs0nIIMrFHYCSIknj-26">
          <mxGeometry width="50" height="50" relative="1" as="geometry">
            <mxPoint x="390" y="690" as="sourcePoint" />
            <mxPoint x="390" y="510" as="targetPoint" />
            <Array as="points">
              <mxPoint x="340" y="615" />
              <mxPoint x="340" y="510" />
            </Array>
          </mxGeometry>
        </mxCell>
        <mxCell id="FrHEs0nIIMrFHYCSIknj-33" value="" style="endArrow=classic;html=1;rounded=0;" edge="1" parent="1" source="FrHEs0nIIMrFHYCSIknj-24" target="FrHEs0nIIMrFHYCSIknj-29">
          <mxGeometry width="50" height="50" relative="1" as="geometry">
            <mxPoint x="390" y="690" as="sourcePoint" />
            <mxPoint x="440" y="640" as="targetPoint" />
            <Array as="points">
              <mxPoint x="340" y="615" />
              <mxPoint x="340" y="645" />
            </Array>
          </mxGeometry>
        </mxCell>
        <mxCell id="FrHEs0nIIMrFHYCSIknj-34" value="" style="endArrow=classic;html=1;rounded=0;" edge="1" parent="1" source="FrHEs0nIIMrFHYCSIknj-24" target="FrHEs0nIIMrFHYCSIknj-28">
          <mxGeometry width="50" height="50" relative="1" as="geometry">
            <mxPoint x="390" y="690" as="sourcePoint" />
            <mxPoint x="440" y="640" as="targetPoint" />
            <Array as="points">
              <mxPoint x="340" y="615" />
              <mxPoint x="340" y="580" />
            </Array>
          </mxGeometry>
        </mxCell>
        <mxCell id="FrHEs0nIIMrFHYCSIknj-35" value="Read-only" style="text;html=1;align=center;verticalAlign=middle;resizable=0;points=[];autosize=1;strokeColor=none;fillColor=none;" vertex="1" parent="1">
          <mxGeometry x="452.5" y="670" width="80" height="30" as="geometry" />
        </mxCell>
        <mxCell id="FrHEs0nIIMrFHYCSIknj-36" value="" style="endArrow=classic;html=1;rounded=0;" edge="1" parent="1" target="FrHEs0nIIMrFHYCSIknj-24">
          <mxGeometry width="50" height="50" relative="1" as="geometry">
            <mxPoint x="400" y="415" as="sourcePoint" />
            <mxPoint x="440" y="510.87669184769265" as="targetPoint" />
            <Array as="points">
              <mxPoint x="400" y="440" />
              <mxPoint x="254" y="440" />
            </Array>
          </mxGeometry>
        </mxCell>
        <mxCell id="FrHEs0nIIMrFHYCSIknj-37" value="" style="endArrow=classic;html=1;rounded=0;exitX=0.834;exitY=-0.133;exitDx=0;exitDy=0;exitPerimeter=0;entryX=0.533;entryY=1.029;entryDx=0;entryDy=0;entryPerimeter=0;" edge="1" parent="1" source="FrHEs0nIIMrFHYCSIknj-27" target="FrHEs0nIIMrFHYCSIknj-2">
          <mxGeometry width="50" height="50" relative="1" as="geometry">
            <mxPoint x="410" y="425" as="sourcePoint" />
            <mxPoint x="264" y="570" as="targetPoint" />
            <Array as="points">
              <mxPoint x="580" y="506" />
              <mxPoint x="580" y="440" />
              <mxPoint x="420" y="440" />
            </Array>
          </mxGeometry>
        </mxCell>
        <mxCell id="FrHEs0nIIMrFHYCSIknj-38" value="" style="endArrow=classic;html=1;rounded=0;exitX=1.141;exitY=0.6;exitDx=0;exitDy=0;exitPerimeter=0;entryX=0.53;entryY=1.021;entryDx=0;entryDy=0;entryPerimeter=0;" edge="1" parent="1" source="FrHEs0nIIMrFHYCSIknj-30" target="FrHEs0nIIMrFHYCSIknj-2">
          <mxGeometry width="50" height="50" relative="1" as="geometry">
            <mxPoint x="447" y="516" as="sourcePoint" />
            <mxPoint x="420" y="420" as="targetPoint" />
            <Array as="points">
              <mxPoint x="580" y="596" />
              <mxPoint x="580" y="440" />
              <mxPoint x="420" y="440" />
            </Array>
          </mxGeometry>
        </mxCell>
        <mxCell id="FrHEs0nIIMrFHYCSIknj-39" value="" style="endArrow=classic;html=1;rounded=0;exitX=1.097;exitY=0.333;exitDx=0;exitDy=0;exitPerimeter=0;" edge="1" parent="1" source="FrHEs0nIIMrFHYCSIknj-31">
          <mxGeometry width="50" height="50" relative="1" as="geometry">
            <mxPoint x="454" y="606" as="sourcePoint" />
            <mxPoint x="420" y="420" as="targetPoint" />
            <Array as="points">
              <mxPoint x="580" y="660" />
              <mxPoint x="580" y="440" />
              <mxPoint x="420" y="440" />
            </Array>
          </mxGeometry>
        </mxCell>
        <mxCell id="FrHEs0nIIMrFHYCSIknj-40" value="" style="rounded=1;whiteSpace=wrap;html=1;" vertex="1" parent="1">
          <mxGeometry x="550" y="145" width="160" height="100" as="geometry" />
        </mxCell>
        <mxCell id="FrHEs0nIIMrFHYCSIknj-44" value="Backend Server" style="text;html=1;align=center;verticalAlign=middle;resizable=0;points=[];autosize=1;strokeColor=none;fillColor=none;" vertex="1" parent="1">
          <mxGeometry x="441.71000000000004" y="384" width="110" height="30" as="geometry" />
        </mxCell>
        <mxCell id="FrHEs0nIIMrFHYCSIknj-45" value="Frontend Server" style="text;html=1;align=center;verticalAlign=middle;resizable=0;points=[];autosize=1;strokeColor=none;fillColor=none;" vertex="1" parent="1">
          <mxGeometry x="550" y="210" width="110" height="30" as="geometry" />
        </mxCell>
        <mxCell id="FrHEs0nIIMrFHYCSIknj-46" value="" style="sketch=0;outlineConnect=0;fontColor=#232F3E;gradientColor=none;fillColor=#232F3D;strokeColor=none;dashed=0;verticalLabelPosition=bottom;verticalAlign=top;align=center;html=1;fontSize=12;fontStyle=0;aspect=fixed;pointerEvents=1;shape=mxgraph.aws4.traditional_server;" vertex="1" parent="1">
          <mxGeometry x="665.79" y="150" width="34.62" height="60" as="geometry" />
        </mxCell>
        <mxCell id="FrHEs0nIIMrFHYCSIknj-47" value="" style="image;sketch=0;aspect=fixed;html=1;points=[];align=center;fontSize=12;image=img/lib/mscae/Content_Delivery_Network.svg;" vertex="1" parent="1">
          <mxGeometry x="642.8" y="195" width="57.61" height="26.5" as="geometry" />
        </mxCell>
        <mxCell id="FrHEs0nIIMrFHYCSIknj-51" value="Content Delivery&amp;nbsp;&lt;div&gt;Network(CDN)&lt;/div&gt;" style="text;html=1;align=center;verticalAlign=middle;resizable=0;points=[];autosize=1;strokeColor=none;fillColor=none;" vertex="1" parent="1">
          <mxGeometry x="545" y="155" width="120" height="40" as="geometry" />
        </mxCell>
        <mxCell id="FrHEs0nIIMrFHYCSIknj-56" value="Load Balancer " style="text;html=1;align=center;verticalAlign=middle;resizable=0;points=[];autosize=1;strokeColor=none;fillColor=none;" vertex="1" parent="1">
          <mxGeometry x="352.5" y="250" width="100" height="30" as="geometry" />
        </mxCell>
        <mxCell id="FrHEs0nIIMrFHYCSIknj-57" value="&lt;font style=&quot;color: rgb(0, 0, 255);&quot;&gt;https://api.coding-for-machine.com&lt;/font&gt;" style="text;html=1;align=center;verticalAlign=middle;resizable=0;points=[];autosize=1;strokeColor=none;fillColor=none;" vertex="1" parent="1">
          <mxGeometry x="290" y="270" width="210" height="30" as="geometry" />
        </mxCell>
        <mxCell id="FrHEs0nIIMrFHYCSIknj-60" value="IP:125.256.25.32.20" style="text;html=1;align=center;verticalAlign=middle;resizable=0;points=[];autosize=1;strokeColor=none;fillColor=none;" vertex="1" parent="1">
          <mxGeometry x="580" y="245" width="130" height="30" as="geometry" />
        </mxCell>
        <mxCell id="FrHEs0nIIMrFHYCSIknj-61" value="&lt;font style=&quot;color: rgb(0, 0, 255);&quot;&gt;https://coding-for-machine.com&lt;/font&gt;" style="text;html=1;align=center;verticalAlign=middle;resizable=0;points=[];autosize=1;strokeColor=none;fillColor=none;" vertex="1" parent="1">
          <mxGeometry x="532.5" y="120" width="190" height="30" as="geometry" />
        </mxCell>
        <mxCell id="FrHEs0nIIMrFHYCSIknj-64" value="NGINX Web Server" style="rounded=1;whiteSpace=wrap;html=1;fontColor=#00CC00;" vertex="1" parent="1">
          <mxGeometry x="262.84" y="205" width="111.55" height="40" as="geometry" />
        </mxCell>
        <mxCell id="FrHEs0nIIMrFHYCSIknj-66" style="edgeStyle=orthogonalEdgeStyle;rounded=0;orthogonalLoop=1;jettySize=auto;html=1;exitX=1;exitY=0.5;exitDx=0;exitDy=0;entryX=0.025;entryY=0.3;entryDx=0;entryDy=0;entryPerimeter=0;" edge="1" parent="1" source="FrHEs0nIIMrFHYCSIknj-62" target="FrHEs0nIIMrFHYCSIknj-51">
          <mxGeometry relative="1" as="geometry" />
        </mxCell>
      </root>
    </mxGraphModel>
  </diagram>
</mxfile>
